# xmcd CD database file
#
# Track frame offsets:
#	150
#	15068
#	38168
#	58098
#	78590
#	97813
#	117505
#	135910
#	158953
#	179150
#	198490
#
# Disc length: 2832 seconds
#
# Revision: 0
# Processed by: cddbd v1.5.1PL2 Copyright (c) Steve Scherf et al.
# Submitted via: CDex 1.51
#
DISCID=890b0e0b
DTITLE=PROJECT DMM - ウルトラマンマックス SONG COLLECTION
DYEAR=2005
DGENRE=サウンドトラック (一般)
TTITLE0=ウルトラマンマックス
TTITLE1=TO THE MAX
TTITLE2=チャンスをこの手に
TTITLE3=NO LIMITED
TTITLE4=輝ける世界へ
TTITLE5=Ultraman Max
TTITLE6=サンダーストーム
TTITLE7=ウルトラの奇跡
TTITLE8=怪獣レクイエム2005
TTITLE9=明日になれば
TTITLE10=ウルトラマン音頭
EXTD=YEAR: 2005
EXTT0=
EXTT1=
EXTT2=
EXTT3=
EXTT4=
EXTT5=
EXTT6=
EXTT7=
EXTT8=
EXTT9=
EXTT10=
PLAYORDER=
